<svg width="140" height="56" viewBox="0 0 140 56" fill="none" xmlns="http://www.w3.org/2000/svg">
<path d="M49.6152 37.0475H53.7738V29.9184H55.5819L59.9989 37.0475H64.4416L59.5598 29.1952C61.7295 28.5495 63.3568 27.0771 63.3568 24.2875V24.1842C63.3568 20.3614 60.593 18.5791 56.2277 18.5791H49.6152V37.0475ZM53.7738 27.0771V21.782H56.1244C58.1391 21.782 59.2757 22.4278 59.2757 24.3133V24.4167C59.2757 26.199 58.2167 27.0771 56.1244 27.0771H53.7738Z" fill="#202020"/>
<path d="M71.5799 37.3316C75.2736 37.3316 77.5983 35.7044 78.0374 32.7855H74.4987C74.2662 33.9221 73.4139 34.6712 71.6833 34.6712C69.6427 34.6712 68.4287 33.3797 68.3254 31.1325H78.0633V30.0993C78.0633 25.269 74.9637 23.2285 71.4766 23.2285C67.5505 23.2285 64.5283 25.9923 64.5283 30.2542V30.4608C64.5283 34.7745 67.4988 37.3316 71.5799 37.3316ZM68.377 28.8336C68.6611 26.9222 69.7977 25.8115 71.4766 25.8115C73.2589 25.8115 74.2921 26.793 74.4212 28.8336H68.377Z" fill="#202020"/>
<path d="M79.8433 37.0475H83.5628V17.4167H79.8433V37.0475Z" fill="#202020"/>
<path d="M90.6987 37.3317C92.9203 37.3317 94.2888 36.2985 94.9862 34.9296V37.0476H98.7058V23.5386H94.9862V31.4683C94.9862 33.4573 93.7463 34.4388 92.1713 34.4388C90.57 34.4388 89.8202 33.5606 89.8202 31.7266V23.5386H86.1011V32.2432C86.1011 35.7819 88.0641 37.3317 90.6987 37.3317Z" fill="#202020"/>
<path d="M101.245 37.0475H104.991V29.0661C104.991 27.2322 106.153 26.3022 107.599 26.3022C108.917 26.3022 109.718 27.0771 109.718 28.8078V37.0475H113.437V29.0661C113.437 27.2322 114.599 26.3022 116.046 26.3022C117.389 26.3022 118.164 27.0771 118.164 28.8078V37.0475H121.884V28.3945C121.884 24.8041 119.946 23.2285 117.44 23.2285C115.736 23.2285 113.98 23.9517 112.895 25.579C112.249 23.9776 110.906 23.2285 109.124 23.2285C107.108 23.2285 105.662 24.3392 104.991 25.6048V23.5384H101.245V37.0475Z" fill="#202020"/>
<path d="M130.532 37.3316C134.226 37.3316 136.551 35.7044 136.99 32.7855H133.451C133.218 33.9221 132.366 34.6712 130.635 34.6712C128.595 34.6712 127.381 33.3797 127.278 31.1325H137.016V30.0993C137.016 25.269 133.916 23.2285 130.429 23.2285C126.503 23.2285 123.48 25.9923 123.48 30.2542V30.4608C123.48 34.7745 126.451 37.3316 130.532 37.3316ZM127.33 28.8336C127.614 26.9222 128.751 25.8115 130.429 25.8115C132.211 25.8115 133.245 26.793 133.374 28.8336H127.33Z" fill="#202020"/>
<path fill-rule="evenodd" clip-rule="evenodd" d="M35.3035 19.684L35.0524 19.2356C34.7285 18.6932 34.2717 18.2425 33.7251 17.9261L21.689 10.9843C21.144 10.6682 20.5254 10.5011 19.8953 10.5H19.3751C18.745 10.5011 18.1264 10.6682 17.5813 10.9843L5.54535 17.9441C5.0018 18.2584 4.55029 18.7099 4.23593 19.2535L3.9848 19.7019C3.66865 20.2469 3.50161 20.8656 3.50049 21.4956V35.3972C3.50161 36.0273 3.66865 36.6459 3.9848 37.1909L4.23593 37.6393C4.55842 38.1766 5.0081 38.6263 5.54535 38.9488L17.5993 45.8905C18.1416 46.2132 18.7621 46.3808 19.393 46.3748H19.8953C20.5254 46.3737 21.144 46.2066 21.689 45.8905L33.7251 38.9309C34.274 38.6236 34.7272 38.1704 35.0344 37.6214L35.3035 37.173C35.6159 36.6264 35.7826 36.0087 35.7878 35.3792V21.4777C35.7868 20.8477 35.6197 20.229 35.3035 19.684ZM19.3751 14.0874H19.8953L30.4067 20.1503L19.6441 26.3566L8.88174 20.1503L19.3751 14.0874ZM21.4379 41.8906L31.9312 35.8277L32.2003 35.3793V23.2536L21.4379 29.4779V41.8906Z" fill="#202020"/>
</svg>
